solid OpenSCAD_Model
  facet normal -0.831469 -0.555571 0
    outer loop
      vertex -7.45752 -5.72236 0
      vertex -8.14064 -4.7 5
      vertex -8.14064 -4.7 0
    endloop
  endfacet
  facet normal -0.831469 -0.555571 0
    outer loop
      vertex -8.14064 -4.7 5
      vertex -7.45752 -5.72236 0
      vertex -7.45752 -5.72236 5
    endloop
  endfacet
  facet normal 0.997859 0.0654043 0
    outer loop
      vertex 9.4 0 5
      vertex 9.31958 1.22695 0
      vertex 9.31958 1.22695 5
    endloop
  endfacet
  facet normal 0.997859 0.0654043 0
    outer loop
      vertex 9.31958 1.22695 0
      vertex 9.4 0 5
      vertex 9.4 0 0
    endloop
  endfacet
  facet normal 0.0654043 0.997859 -0
    outer loop
      vertex 1.22695 9.31958 0
      vertex 0 9.4 5
      vertex 1.22695 9.31958 5
    endloop
  endfacet
  facet normal 0.0654043 0.997859 0
    outer loop
      vertex 0 9.4 5
      vertex 1.22695 9.31958 0
      vertex 0 9.4 0
    endloop
  endfacet
  facet normal -0.997859 0.0654043 0
    outer loop
      vertex -9.4 0 0
      vertex -9.31958 1.22695 5
      vertex -9.31958 1.22695 0
    endloop
  endfacet
  facet normal -0.997859 0.0654043 0
    outer loop
      vertex -9.31958 1.22695 5
      vertex -9.4 0 0
      vertex -9.4 0 5
    endloop
  endfacet
  facet normal 0.659349 0.751837 -0
    outer loop
      vertex 6.6468 6.6468 0
      vertex 5.72236 7.45752 5
      vertex 6.6468 6.6468 5
    endloop
  endfacet
  facet normal 0.659349 0.751837 0
    outer loop
      vertex 5.72236 7.45752 5
      vertex 6.6468 6.6468 0
      vertex 5.72236 7.45752 0
    endloop
  endfacet
  facet normal -0.980785 0.195092 0
    outer loop
      vertex -9.31958 1.22695 0
      vertex -9.0797 2.4329 5
      vertex -9.0797 2.4329 0
    endloop
  endfacet
  facet normal -0.980785 0.195092 0
    outer loop
      vertex -9.0797 2.4329 5
      vertex -9.31958 1.22695 0
      vertex -9.31958 1.22695 5
    endloop
  endfacet
  facet normal 0.896873 0.442288 0
    outer loop
      vertex 8.68447 3.59722 5
      vertex 8.14064 4.7 0
      vertex 8.14064 4.7 5
    endloop
  endfacet
  facet normal 0.896873 0.442288 0
    outer loop
      vertex 8.14064 4.7 0
      vertex 8.68447 3.59722 5
      vertex 8.68447 3.59722 0
    endloop
  endfacet
  facet normal -0.751837 0.659349 0
    outer loop
      vertex -7.45752 5.72236 0
      vertex -6.6468 6.6468 5
      vertex -6.6468 6.6468 0
    endloop
  endfacet
  facet normal -0.751837 0.659349 0
    outer loop
      vertex -6.6468 6.6468 5
      vertex -7.45752 5.72236 0
      vertex -7.45752 5.72236 5
    endloop
  endfacet
  facet normal -0.946931 -0.321437 0
    outer loop
      vertex -8.68447 -3.59722 0
      vertex -9.0797 -2.4329 5
      vertex -9.0797 -2.4329 0
    endloop
  endfacet
  facet normal -0.946931 -0.321437 0
    outer loop
      vertex -9.0797 -2.4329 5
      vertex -8.68447 -3.59722 0
      vertex -8.68447 -3.59722 5
    endloop
  endfacet
  facet normal 0.831469 0.555571 0
    outer loop
      vertex 8.14064 4.7 5
      vertex 7.45752 5.72236 0
      vertex 7.45752 5.72236 5
    endloop
  endfacet
  facet normal 0.831469 0.555571 0
    outer loop
      vertex 7.45752 5.72236 0
      vertex 8.14064 4.7 5
      vertex 8.14064 4.7 0
    endloop
  endfacet
  facet normal -0.751837 -0.659349 0
    outer loop
      vertex -6.6468 -6.6468 0
      vertex -7.45752 -5.72236 5
      vertex -7.45752 -5.72236 0
    endloop
  endfacet
  facet normal -0.751837 -0.659349 0
    outer loop
      vertex -7.45752 -5.72236 5
      vertex -6.6468 -6.6468 0
      vertex -6.6468 -6.6468 5
    endloop
  endfacet
  facet normal -0.896873 0.442288 0
    outer loop
      vertex -8.68447 3.59722 0
      vertex -8.14064 4.7 5
      vertex -8.14064 4.7 0
    endloop
  endfacet
  facet normal -0.896873 0.442288 0
    outer loop
      vertex -8.14064 4.7 5
      vertex -8.68447 3.59722 0
      vertex -8.68447 3.59722 5
    endloop
  endfacet
  facet normal 0.831469 -0.555571 0
    outer loop
      vertex 7.45752 -5.72236 5
      vertex 8.14064 -4.7 0
      vertex 8.14064 -4.7 5
    endloop
  endfacet
  facet normal 0.831469 -0.555571 0
    outer loop
      vertex 8.14064 -4.7 0
      vertex 7.45752 -5.72236 5
      vertex 7.45752 -5.72236 0
    endloop
  endfacet
  facet normal -0.659349 -0.751837 0
    outer loop
      vertex -6.6468 -6.6468 0
      vertex -5.72236 -7.45752 5
      vertex -6.6468 -6.6468 5
    endloop
  endfacet
  facet normal -0.659349 -0.751837 -0
    outer loop
      vertex -5.72236 -7.45752 5
      vertex -6.6468 -6.6468 0
      vertex -5.72236 -7.45752 0
    endloop
  endfacet
  facet normal -0.321437 0.946931 0
    outer loop
      vertex -2.4329 9.0797 0
      vertex -3.59722 8.68447 5
      vertex -2.4329 9.0797 5
    endloop
  endfacet
  facet normal -0.321437 0.946931 0
    outer loop
      vertex -3.59722 8.68447 5
      vertex -2.4329 9.0797 0
      vertex -3.59722 8.68447 0
    endloop
  endfacet
  facet normal 0.946931 0.321437 0
    outer loop
      vertex 9.0797 2.4329 5
      vertex 8.68447 3.59722 0
      vertex 8.68447 3.59722 5
    endloop
  endfacet
  facet normal 0.946931 0.321437 0
    outer loop
      vertex 8.68447 3.59722 0
      vertex 9.0797 2.4329 5
      vertex 9.0797 2.4329 0
    endloop
  endfacet
  facet normal -0.896873 -0.442288 0
    outer loop
      vertex -8.14064 -4.7 0
      vertex -8.68447 -3.59722 5
      vertex -8.68447 -3.59722 0
    endloop
  endfacet
  facet normal -0.896873 -0.442288 0
    outer loop
      vertex -8.68447 -3.59722 5
      vertex -8.14064 -4.7 0
      vertex -8.14064 -4.7 5
    endloop
  endfacet
  facet normal 0.321437 -0.946931 0
    outer loop
      vertex 2.4329 -9.0797 0
      vertex 3.59722 -8.68447 5
      vertex 2.4329 -9.0797 5
    endloop
  endfacet
  facet normal 0.321437 -0.946931 0
    outer loop
      vertex 3.59722 -8.68447 5
      vertex 2.4329 -9.0797 0
      vertex 3.59722 -8.68447 0
    endloop
  endfacet
  facet normal 0.442288 -0.896873 0
    outer loop
      vertex 3.59722 -8.68447 0
      vertex 4.7 -8.14064 5
      vertex 3.59722 -8.68447 5
    endloop
  endfacet
  facet normal 0.442288 -0.896873 0
    outer loop
      vertex 4.7 -8.14064 5
      vertex 3.59722 -8.68447 0
      vertex 4.7 -8.14064 0
    endloop
  endfacet
  facet normal 0.946931 -0.321437 0
    outer loop
      vertex 8.68447 -3.59722 5
      vertex 9.0797 -2.4329 0
      vertex 9.0797 -2.4329 5
    endloop
  endfacet
  facet normal 0.946931 -0.321437 0
    outer loop
      vertex 9.0797 -2.4329 0
      vertex 8.68447 -3.59722 5
      vertex 8.68447 -3.59722 0
    endloop
  endfacet
  facet normal 0.195092 0.980785 -0
    outer loop
      vertex 2.4329 9.0797 0
      vertex 1.22695 9.31958 5
      vertex 2.4329 9.0797 5
    endloop
  endfacet
  facet normal 0.195092 0.980785 0
    outer loop
      vertex 1.22695 9.31958 5
      vertex 2.4329 9.0797 0
      vertex 1.22695 9.31958 0
    endloop
  endfacet
  facet normal -0.0654043 -0.997859 0
    outer loop
      vertex -1.22695 -9.31958 0
      vertex 0 -9.4 5
      vertex -1.22695 -9.31958 5
    endloop
  endfacet
  facet normal -0.0654043 -0.997859 -0
    outer loop
      vertex 0 -9.4 5
      vertex -1.22695 -9.31958 0
      vertex 0 -9.4 0
    endloop
  endfacet
  facet normal -0.442288 0.896873 0
    outer loop
      vertex -3.59722 8.68447 0
      vertex -4.7 8.14064 5
      vertex -3.59722 8.68447 5
    endloop
  endfacet
  facet normal -0.442288 0.896873 0
    outer loop
      vertex -4.7 8.14064 5
      vertex -3.59722 8.68447 0
      vertex -4.7 8.14064 0
    endloop
  endfacet
  facet normal -0.555571 0.831469 0
    outer loop
      vertex -4.7 8.14064 0
      vertex -5.72236 7.45752 5
      vertex -4.7 8.14064 5
    endloop
  endfacet
  facet normal -0.555571 0.831469 0
    outer loop
      vertex -5.72236 7.45752 5
      vertex -4.7 8.14064 0
      vertex -5.72236 7.45752 0
    endloop
  endfacet
  facet normal -0.659349 0.751837 0
    outer loop
      vertex -5.72236 7.45752 0
      vertex -6.6468 6.6468 5
      vertex -5.72236 7.45752 5
    endloop
  endfacet
  facet normal -0.659349 0.751837 0
    outer loop
      vertex -6.6468 6.6468 5
      vertex -5.72236 7.45752 0
      vertex -6.6468 6.6468 0
    endloop
  endfacet
  facet normal 0.980785 0.195092 0
    outer loop
      vertex 9.31958 1.22695 5
      vertex 9.0797 2.4329 0
      vertex 9.0797 2.4329 5
    endloop
  endfacet
  facet normal 0.980785 0.195092 0
    outer loop
      vertex 9.0797 2.4329 0
      vertex 9.31958 1.22695 5
      vertex 9.31958 1.22695 0
    endloop
  endfacet
  facet normal 0.442288 0.896873 -0
    outer loop
      vertex 4.7 8.14064 0
      vertex 3.59722 8.68447 5
      vertex 4.7 8.14064 5
    endloop
  endfacet
  facet normal 0.442288 0.896873 0
    outer loop
      vertex 3.59722 8.68447 5
      vertex 4.7 8.14064 0
      vertex 3.59722 8.68447 0
    endloop
  endfacet
  facet normal -0.321437 -0.946931 0
    outer loop
      vertex -3.59722 -8.68447 0
      vertex -2.4329 -9.0797 5
      vertex -3.59722 -8.68447 5
    endloop
  endfacet
  facet normal -0.321437 -0.946931 -0
    outer loop
      vertex -2.4329 -9.0797 5
      vertex -3.59722 -8.68447 0
      vertex -2.4329 -9.0797 0
    endloop
  endfacet
  facet normal -0.946931 0.321437 0
    outer loop
      vertex -9.0797 2.4329 0
      vertex -8.68447 3.59722 5
      vertex -8.68447 3.59722 0
    endloop
  endfacet
  facet normal -0.946931 0.321437 0
    outer loop
      vertex -8.68447 3.59722 5
      vertex -9.0797 2.4329 0
      vertex -9.0797 2.4329 5
    endloop
  endfacet
  facet normal -0.980785 -0.195092 0
    outer loop
      vertex -9.0797 -2.4329 0
      vertex -9.31958 -1.22695 5
      vertex -9.31958 -1.22695 0
    endloop
  endfacet
  facet normal -0.980785 -0.195092 0
    outer loop
      vertex -9.31958 -1.22695 5
      vertex -9.0797 -2.4329 0
      vertex -9.0797 -2.4329 5
    endloop
  endfacet
  facet normal -0.195092 0.980785 0
    outer loop
      vertex -1.22695 9.31958 0
      vertex -2.4329 9.0797 5
      vertex -1.22695 9.31958 5
    endloop
  endfacet
  facet normal -0.195092 0.980785 0
    outer loop
      vertex -2.4329 9.0797 5
      vertex -1.22695 9.31958 0
      vertex -2.4329 9.0797 0
    endloop
  endfacet
  facet normal 0.555571 0.831469 -0
    outer loop
      vertex 5.72236 7.45752 0
      vertex 4.7 8.14064 5
      vertex 5.72236 7.45752 5
    endloop
  endfacet
  facet normal 0.555571 0.831469 0
    outer loop
      vertex 4.7 8.14064 5
      vertex 5.72236 7.45752 0
      vertex 4.7 8.14064 0
    endloop
  endfacet
  facet normal 0 0 1
    outer loop
      vertex 5.3 0 5
      vertex 9.4 0 5
      vertex 9.31958 1.22695 5
    endloop
  endfacet
  facet normal 0 0 1
    outer loop
      vertex 5.25466 0.691789 5
      vertex 9.31958 1.22695 5
      vertex 9.0797 2.4329 5
    endloop
  endfacet
  facet normal 0 0 1
    outer loop
      vertex 9.4 0 5
      vertex 5.3 0 5
      vertex 9.31958 -1.22695 5
    endloop
  endfacet
  facet normal 0 0 1
    outer loop
      vertex 5.11941 1.37174 5
      vertex 9.0797 2.4329 5
      vertex 8.68447 3.59722 5
    endloop
  endfacet
  facet normal -0 0 1
    outer loop
      vertex 5.25466 -0.691789 5
      vertex 9.31958 -1.22695 5
      vertex 5.3 0 5
    endloop
  endfacet
  facet normal 0 0 1
    outer loop
      vertex 4.89656 2.02822 5
      vertex 8.68447 3.59722 5
      vertex 8.14064 4.7 5
    endloop
  endfacet
  facet normal 0 0 1
    outer loop
      vertex 9.31958 -1.22695 5
      vertex 5.25466 -0.691789 5
      vertex 9.0797 -2.4329 5
    endloop
  endfacet
  facet normal 0 0 1
    outer loop
      vertex 4.58993 2.65 5
      vertex 8.14064 4.7 5
      vertex 7.45752 5.72236 5
    endloop
  endfacet
  facet normal -0 0 1
    outer loop
      vertex 5.11941 -1.37174 5
      vertex 9.0797 -2.4329 5
      vertex 5.25466 -0.691789 5
    endloop
  endfacet
  facet normal 0 0 1
    outer loop
      vertex 4.20477 3.22643 5
      vertex 7.45752 5.72236 5
      vertex 6.6468 6.6468 5
    endloop
  endfacet
  facet normal 0 0 1
    outer loop
      vertex 9.0797 -2.4329 5
      vertex 5.11941 -1.37174 5
      vertex 8.68447 -3.59722 5
    endloop
  endfacet
  facet normal 0 0 1
    outer loop
      vertex 3.74767 3.74767 5
      vertex 6.6468 6.6468 5
      vertex 5.72236 7.45752 5
    endloop
  endfacet
  facet normal -0 0 1
    outer loop
      vertex 4.89656 -2.02822 5
      vertex 8.68447 -3.59722 5
      vertex 5.11941 -1.37174 5
    endloop
  endfacet
  facet normal 0 0 1
    outer loop
      vertex 8.68447 -3.59722 5
      vertex 4.89656 -2.02822 5
      vertex 8.14064 -4.7 5
    endloop
  endfacet
  facet normal 0 0 1
    outer loop
      vertex 9.31958 1.22695 5
      vertex 5.25466 0.691789 5
      vertex 5.3 0 5
    endloop
  endfacet
  facet normal 0 0 1
    outer loop
      vertex 9.0797 2.4329 5
      vertex 5.11941 1.37174 5
      vertex 5.25466 0.691789 5
    endloop
  endfacet
  facet normal 0 0 1
    outer loop
      vertex 8.68447 3.59722 5
      vertex 4.89656 2.02822 5
      vertex 5.11941 1.37174 5
    endloop
  endfacet
  facet normal 0 0 1
    outer loop
      vertex 3.22643 4.20477 5
      vertex 5.72236 7.45752 5
      vertex 4.7 8.14064 5
    endloop
  endfacet
  facet normal 0 0 1
    outer loop
      vertex 8.14064 4.7 5
      vertex 4.58993 2.65 5
      vertex 4.89656 2.02822 5
    endloop
  endfacet
  facet normal 0 0 1
    outer loop
      vertex 7.45752 5.72236 5
      vertex 4.20477 3.22643 5
      vertex 4.58993 2.65 5
    endloop
  endfacet
  facet normal 0 0 1
    outer loop
      vertex 6.6468 6.6468 5
      vertex 3.74767 3.74767 5
      vertex 4.20477 3.22643 5
    endloop
  endfacet
  facet normal 0 0 1
    outer loop
      vertex 2.65 4.58993 5
      vertex 4.7 8.14064 5
      vertex 3.59722 8.68447 5
    endloop
  endfacet
  facet normal 0 0 1
    outer loop
      vertex 5.72236 7.45752 5
      vertex 3.22643 4.20477 5
      vertex 3.74767 3.74767 5
    endloop
  endfacet
  facet normal 0 0 1
    outer loop
      vertex 4.7 8.14064 5
      vertex 2.65 4.58993 5
      vertex 3.22643 4.20477 5
    endloop
  endfacet
  facet normal 0 0 1
    outer loop
      vertex 2.02822 4.89656 5
      vertex 3.59722 8.68447 5
      vertex 2.4329 9.0797 5
    endloop
  endfacet
  facet normal 0 0 1
    outer loop
      vertex 3.59722 8.68447 5
      vertex 2.02822 4.89656 5
      vertex 2.65 4.58993 5
    endloop
  endfacet
  facet normal 0 0 1
    outer loop
      vertex 2.4329 9.0797 5
      vertex 1.37174 5.11941 5
      vertex 2.02822 4.89656 5
    endloop
  endfacet
  facet normal 0 0 1
    outer loop
      vertex 1.22695 9.31958 5
      vertex 1.37174 5.11941 5
      vertex 2.4329 9.0797 5
    endloop
  endfacet
  facet normal 0 0 1
    outer loop
      vertex 1.22695 9.31958 5
      vertex 0.691789 5.25466 5
      vertex 1.37174 5.11941 5
    endloop
  endfacet
  facet normal 0 0 1
    outer loop
      vertex 0 9.4 5
      vertex 0.691789 5.25466 5
      vertex 1.22695 9.31958 5
    endloop
  endfacet
  facet normal 0 0 1
    outer loop
      vertex 0 9.4 5
      vertex 0 5.3 5
      vertex 0.691789 5.25466 5
    endloop
  endfacet
  facet normal 0 0 1
    outer loop
      vertex 0 9.4 5
      vertex -0.691789 5.25466 5
      vertex 0 5.3 5
    endloop
  endfacet
  facet normal -0 0 1
    outer loop
      vertex -1.22695 9.31958 5
      vertex -0.691789 5.25466 5
      vertex 0 9.4 5
    endloop
  endfacet
  facet normal 0 0 1
    outer loop
      vertex -1.22695 9.31958 5
      vertex -1.37174 5.11941 5
      vertex -0.691789 5.25466 5
    endloop
  endfacet
  facet normal -0 0 1
    outer loop
      vertex -2.4329 9.0797 5
      vertex -1.37174 5.11941 5
      vertex -1.22695 9.31958 5
    endloop
  endfacet
  facet normal 0 0 1
    outer loop
      vertex -1.37174 5.11941 5
      vertex -2.4329 9.0797 5
      vertex -2.02822 4.89656 5
    endloop
  endfacet
  facet normal -0 0 1
    outer loop
      vertex -3.59722 8.68447 5
      vertex -2.02822 4.89656 5
      vertex -2.4329 9.0797 5
    endloop
  endfacet
  facet normal 0 0 1
    outer loop
      vertex -2.02822 4.89656 5
      vertex -3.59722 8.68447 5
      vertex -2.65 4.58993 5
    endloop
  endfacet
  facet normal -0 0 1
    outer loop
      vertex -4.7 8.14064 5
      vertex -2.65 4.58993 5
      vertex -3.59722 8.68447 5
    endloop
  endfacet
  facet normal 0 0 1
    outer loop
      vertex -2.65 4.58993 5
      vertex -4.7 8.14064 5
      vertex -3.22643 4.20477 5
    endloop
  endfacet
  facet normal -0 0 1
    outer loop
      vertex -5.72236 7.45752 5
      vertex -3.22643 4.20477 5
      vertex -4.7 8.14064 5
    endloop
  endfacet
  facet normal 0 0 1
    outer loop
      vertex -3.22643 4.20477 5
      vertex -5.72236 7.45752 5
      vertex -3.74767 3.74767 5
    endloop
  endfacet
  facet normal -0 0 1
    outer loop
      vertex -6.6468 6.6468 5
      vertex -3.74767 3.74767 5
      vertex -5.72236 7.45752 5
    endloop
  endfacet
  facet normal 0 0 1
    outer loop
      vertex -3.74767 3.74767 5
      vertex -6.6468 6.6468 5
      vertex -4.20477 3.22643 5
    endloop
  endfacet
  facet normal -0 0 1
    outer loop
      vertex -7.45752 5.72236 5
      vertex -4.20477 3.22643 5
      vertex -6.6468 6.6468 5
    endloop
  endfacet
  facet normal 0 0 1
    outer loop
      vertex -4.20477 3.22643 5
      vertex -7.45752 5.72236 5
      vertex -4.58993 2.65 5
    endloop
  endfacet
  facet normal 0 0 1
    outer loop
      vertex -4.58993 2.65 5
      vertex -8.14064 4.7 5
      vertex -4.89656 2.02822 5
    endloop
  endfacet
  facet normal -0 0 1
    outer loop
      vertex -8.14064 4.7 5
      vertex -4.58993 2.65 5
      vertex -7.45752 5.72236 5
    endloop
  endfacet
  facet normal -0 0 1
    outer loop
      vertex 4.58993 -2.65 5
      vertex 8.14064 -4.7 5
      vertex 4.89656 -2.02822 5
    endloop
  endfacet
  facet normal 0 0 1
    outer loop
      vertex 8.14064 -4.7 5
      vertex 4.58993 -2.65 5
      vertex 7.45752 -5.72236 5
    endloop
  endfacet
  facet normal -0 0 1
    outer loop
      vertex 4.20477 -3.22643 5
      vertex 7.45752 -5.72236 5
      vertex 4.58993 -2.65 5
    endloop
  endfacet
  facet normal 0 0 1
    outer loop
      vertex 7.45752 -5.72236 5
      vertex 4.20477 -3.22643 5
      vertex 6.6468 -6.6468 5
    endloop
  endfacet
  facet normal -0 0 1
    outer loop
      vertex 3.74767 -3.74767 5
      vertex 6.6468 -6.6468 5
      vertex 4.20477 -3.22643 5
    endloop
  endfacet
  facet normal 0 0 1
    outer loop
      vertex 6.6468 -6.6468 5
      vertex 3.74767 -3.74767 5
      vertex 5.72236 -7.45752 5
    endloop
  endfacet
  facet normal -0 0 1
    outer loop
      vertex 3.22643 -4.20477 5
      vertex 5.72236 -7.45752 5
      vertex 3.74767 -3.74767 5
    endloop
  endfacet
  facet normal 0 0 1
    outer loop
      vertex 5.72236 -7.45752 5
      vertex 3.22643 -4.20477 5
      vertex 4.7 -8.14064 5
    endloop
  endfacet
  facet normal -0 0 1
    outer loop
      vertex 2.65 -4.58993 5
      vertex 4.7 -8.14064 5
      vertex 3.22643 -4.20477 5
    endloop
  endfacet
  facet normal 0 0 1
    outer loop
      vertex 4.7 -8.14064 5
      vertex 2.65 -4.58993 5
      vertex 3.59722 -8.68447 5
    endloop
  endfacet
  facet normal -0 0 1
    outer loop
      vertex 2.02822 -4.89656 5
      vertex 3.59722 -8.68447 5
      vertex 2.65 -4.58993 5
    endloop
  endfacet
  facet normal 0 0 1
    outer loop
      vertex 3.59722 -8.68447 5
      vertex 2.02822 -4.89656 5
      vertex 2.4329 -9.0797 5
    endloop
  endfacet
  facet normal -0 0 1
    outer loop
      vertex 1.37174 -5.11941 5
      vertex 2.4329 -9.0797 5
      vertex 2.02822 -4.89656 5
    endloop
  endfacet
  facet normal 0 0 1
    outer loop
      vertex 1.37174 -5.11941 5
      vertex 1.22695 -9.31958 5
      vertex 2.4329 -9.0797 5
    endloop
  endfacet
  facet normal -0 0 1
    outer loop
      vertex 0.691789 -5.25466 5
      vertex 1.22695 -9.31958 5
      vertex 1.37174 -5.11941 5
    endloop
  endfacet
  facet normal -0 0 1
    outer loop
      vertex 0 -5.3 5
      vertex 1.22695 -9.31958 5
      vertex 0.691789 -5.25466 5
    endloop
  endfacet
  facet normal 0 0 1
    outer loop
      vertex 0 -5.3 5
      vertex 0 -9.4 5
      vertex 1.22695 -9.31958 5
    endloop
  endfacet
  facet normal 0 0 1
    outer loop
      vertex -0.691789 -5.25466 5
      vertex 0 -9.4 5
      vertex 0 -5.3 5
    endloop
  endfacet
  facet normal 0 0 1
    outer loop
      vertex -0.691789 -5.25466 5
      vertex -1.22695 -9.31958 5
      vertex 0 -9.4 5
    endloop
  endfacet
  facet normal 0 0 1
    outer loop
      vertex -1.37174 -5.11941 5
      vertex -1.22695 -9.31958 5
      vertex -0.691789 -5.25466 5
    endloop
  endfacet
  facet normal 0 0 1
    outer loop
      vertex -2.4329 -9.0797 5
      vertex -1.37174 -5.11941 5
      vertex -2.02822 -4.89656 5
    endloop
  endfacet
  facet normal 0 0 1
    outer loop
      vertex -1.37174 -5.11941 5
      vertex -2.4329 -9.0797 5
      vertex -1.22695 -9.31958 5
    endloop
  endfacet
  facet normal 0 0 1
    outer loop
      vertex -3.59722 -8.68447 5
      vertex -2.02822 -4.89656 5
      vertex -2.65 -4.58993 5
    endloop
  endfacet
  facet normal 0 0 1
    outer loop
      vertex -4.7 -8.14064 5
      vertex -2.65 -4.58993 5
      vertex -3.22643 -4.20477 5
    endloop
  endfacet
  facet normal 0 0 1
    outer loop
      vertex -2.02822 -4.89656 5
      vertex -3.59722 -8.68447 5
      vertex -2.4329 -9.0797 5
    endloop
  endfacet
  facet normal 0 0 1
    outer loop
      vertex -5.72236 -7.45752 5
      vertex -3.22643 -4.20477 5
      vertex -3.74767 -3.74767 5
    endloop
  endfacet
  facet normal 0 0 1
    outer loop
      vertex -6.6468 -6.6468 5
      vertex -3.74767 -3.74767 5
      vertex -4.20477 -3.22643 5
    endloop
  endfacet
  facet normal 0 0 1
    outer loop
      vertex -7.45752 -5.72236 5
      vertex -4.20477 -3.22643 5
      vertex -4.58993 -2.65 5
    endloop
  endfacet
  facet normal 0 0 1
    outer loop
      vertex -2.65 -4.58993 5
      vertex -4.7 -8.14064 5
      vertex -3.59722 -8.68447 5
    endloop
  endfacet
  facet normal 0 0 1
    outer loop
      vertex -8.14064 -4.7 5
      vertex -4.58993 -2.65 5
      vertex -4.89656 -2.02822 5
    endloop
  endfacet
  facet normal 0 0 1
    outer loop
      vertex -8.68447 -3.59722 5
      vertex -4.89656 -2.02822 5
      vertex -5.11941 -1.37174 5
    endloop
  endfacet
  facet normal 0 0 1
    outer loop
      vertex -9.0797 -2.4329 5
      vertex -5.11941 -1.37174 5
      vertex -5.25466 -0.691789 5
    endloop
  endfacet
  facet normal 0 0 1
    outer loop
      vertex -3.22643 -4.20477 5
      vertex -5.72236 -7.45752 5
      vertex -4.7 -8.14064 5
    endloop
  endfacet
  facet normal 0 0 1
    outer loop
      vertex -9.31958 -1.22695 5
      vertex -5.25466 -0.691789 5
      vertex -5.3 0 5
    endloop
  endfacet
  facet normal -0 0 1
    outer loop
      vertex -8.68447 3.59722 5
      vertex -4.89656 2.02822 5
      vertex -8.14064 4.7 5
    endloop
  endfacet
  facet normal 0 0 1
    outer loop
      vertex -4.89656 2.02822 5
      vertex -8.68447 3.59722 5
      vertex -5.11941 1.37174 5
    endloop
  endfacet
  facet normal 0 0 1
    outer loop
      vertex -3.74767 -3.74767 5
      vertex -6.6468 -6.6468 5
      vertex -5.72236 -7.45752 5
    endloop
  endfacet
  facet normal -0 0 1
    outer loop
      vertex -9.0797 2.4329 5
      vertex -5.11941 1.37174 5
      vertex -8.68447 3.59722 5
    endloop
  endfacet
  facet normal 0 0 1
    outer loop
      vertex -4.20477 -3.22643 5
      vertex -7.45752 -5.72236 5
      vertex -6.6468 -6.6468 5
    endloop
  endfacet
  facet normal 0 0 1
    outer loop
      vertex -5.11941 1.37174 5
      vertex -9.0797 2.4329 5
      vertex -5.25466 0.691789 5
    endloop
  endfacet
  facet normal 0 0 1
    outer loop
      vertex -4.58993 -2.65 5
      vertex -8.14064 -4.7 5
      vertex -7.45752 -5.72236 5
    endloop
  endfacet
  facet normal -0 0 1
    outer loop
      vertex -9.31958 1.22695 5
      vertex -5.25466 0.691789 5
      vertex -9.0797 2.4329 5
    endloop
  endfacet
  facet normal 0 0 1
    outer loop
      vertex -4.89656 -2.02822 5
      vertex -8.68447 -3.59722 5
      vertex -8.14064 -4.7 5
    endloop
  endfacet
  facet normal 0 0 1
    outer loop
      vertex -5.25466 0.691789 5
      vertex -9.31958 1.22695 5
      vertex -5.3 0 5
    endloop
  endfacet
  facet normal 0 0 1
    outer loop
      vertex -5.11941 -1.37174 5
      vertex -9.0797 -2.4329 5
      vertex -8.68447 -3.59722 5
    endloop
  endfacet
  facet normal 0 0 1
    outer loop
      vertex -9.4 0 5
      vertex -5.3 0 5
      vertex -9.31958 1.22695 5
    endloop
  endfacet
  facet normal 0 0 1
    outer loop
      vertex -5.25466 -0.691789 5
      vertex -9.31958 -1.22695 5
      vertex -9.0797 -2.4329 5
    endloop
  endfacet
  facet normal 0 0 1
    outer loop
      vertex -5.3 0 5
      vertex -9.4 0 5
      vertex -9.31958 -1.22695 5
    endloop
  endfacet
  facet normal 0.659349 -0.751837 0
    outer loop
      vertex 5.72236 -7.45752 0
      vertex 6.6468 -6.6468 5
      vertex 5.72236 -7.45752 5
    endloop
  endfacet
  facet normal 0.659349 -0.751837 0
    outer loop
      vertex 6.6468 -6.6468 5
      vertex 5.72236 -7.45752 0
      vertex 6.6468 -6.6468 0
    endloop
  endfacet
  facet normal 0.0654043 -0.997859 0
    outer loop
      vertex 0 -9.4 0
      vertex 1.22695 -9.31958 5
      vertex 0 -9.4 5
    endloop
  endfacet
  facet normal 0.0654043 -0.997859 0
    outer loop
      vertex 1.22695 -9.31958 5
      vertex 0 -9.4 0
      vertex 1.22695 -9.31958 0
    endloop
  endfacet
  facet normal 0.896873 -0.442288 0
    outer loop
      vertex 8.14064 -4.7 5
      vertex 8.68447 -3.59722 0
      vertex 8.68447 -3.59722 5
    endloop
  endfacet
  facet normal 0.896873 -0.442288 0
    outer loop
      vertex 8.68447 -3.59722 0
      vertex 8.14064 -4.7 5
      vertex 8.14064 -4.7 0
    endloop
  endfacet
  facet normal -0.0654043 0.997859 0
    outer loop
      vertex 0 9.4 0
      vertex -1.22695 9.31958 5
      vertex 0 9.4 5
    endloop
  endfacet
  facet normal -0.0654043 0.997859 0
    outer loop
      vertex -1.22695 9.31958 5
      vertex 0 9.4 0
      vertex -1.22695 9.31958 0
    endloop
  endfacet
  facet normal 0.195092 -0.980785 0
    outer loop
      vertex 1.22695 -9.31958 0
      vertex 2.4329 -9.0797 5
      vertex 1.22695 -9.31958 5
    endloop
  endfacet
  facet normal 0.195092 -0.980785 0
    outer loop
      vertex 2.4329 -9.0797 5
      vertex 1.22695 -9.31958 0
      vertex 2.4329 -9.0797 0
    endloop
  endfacet
  facet normal 0.321437 0.946931 -0
    outer loop
      vertex 3.59722 8.68447 0
      vertex 2.4329 9.0797 5
      vertex 3.59722 8.68447 5
    endloop
  endfacet
  facet normal 0.321437 0.946931 0
    outer loop
      vertex 2.4329 9.0797 5
      vertex 3.59722 8.68447 0
      vertex 2.4329 9.0797 0
    endloop
  endfacet
  facet normal 0.751837 -0.659349 0
    outer loop
      vertex 6.6468 -6.6468 5
      vertex 7.45752 -5.72236 0
      vertex 7.45752 -5.72236 5
    endloop
  endfacet
  facet normal 0.751837 -0.659349 0
    outer loop
      vertex 7.45752 -5.72236 0
      vertex 6.6468 -6.6468 5
      vertex 6.6468 -6.6468 0
    endloop
  endfacet
  facet normal 0.751837 0.659349 0
    outer loop
      vertex 7.45752 5.72236 5
      vertex 6.6468 6.6468 0
      vertex 6.6468 6.6468 5
    endloop
  endfacet
  facet normal 0.751837 0.659349 0
    outer loop
      vertex 6.6468 6.6468 0
      vertex 7.45752 5.72236 5
      vertex 7.45752 5.72236 0
    endloop
  endfacet
  facet normal -0.997859 -0.0654043 0
    outer loop
      vertex -9.31958 -1.22695 0
      vertex -9.4 0 5
      vertex -9.4 0 0
    endloop
  endfacet
  facet normal -0.997859 -0.0654043 0
    outer loop
      vertex -9.4 0 5
      vertex -9.31958 -1.22695 0
      vertex -9.31958 -1.22695 5
    endloop
  endfacet
  facet normal -0.195092 -0.980785 0
    outer loop
      vertex -2.4329 -9.0797 0
      vertex -1.22695 -9.31958 5
      vertex -2.4329 -9.0797 5
    endloop
  endfacet
  facet normal -0.195092 -0.980785 -0
    outer loop
      vertex -1.22695 -9.31958 5
      vertex -2.4329 -9.0797 0
      vertex -1.22695 -9.31958 0
    endloop
  endfacet
  facet normal -0.442288 -0.896873 0
    outer loop
      vertex -4.7 -8.14064 0
      vertex -3.59722 -8.68447 5
      vertex -4.7 -8.14064 5
    endloop
  endfacet
  facet normal -0.442288 -0.896873 -0
    outer loop
      vertex -3.59722 -8.68447 5
      vertex -4.7 -8.14064 0
      vertex -3.59722 -8.68447 0
    endloop
  endfacet
  facet normal -0.831469 0.555571 0
    outer loop
      vertex -8.14064 4.7 0
      vertex -7.45752 5.72236 5
      vertex -7.45752 5.72236 0
    endloop
  endfacet
  facet normal -0.831469 0.555571 0
    outer loop
      vertex -7.45752 5.72236 5
      vertex -8.14064 4.7 0
      vertex -8.14064 4.7 5
    endloop
  endfacet
  facet normal 0.997859 -0.0654043 0
    outer loop
      vertex 9.31958 -1.22695 5
      vertex 9.4 0 0
      vertex 9.4 0 5
    endloop
  endfacet
  facet normal 0.997859 -0.0654043 0
    outer loop
      vertex 9.4 0 0
      vertex 9.31958 -1.22695 5
      vertex 9.31958 -1.22695 0
    endloop
  endfacet
  facet normal 0.980785 -0.195092 0
    outer loop
      vertex 9.0797 -2.4329 5
      vertex 9.31958 -1.22695 0
      vertex 9.31958 -1.22695 5
    endloop
  endfacet
  facet normal 0.980785 -0.195092 0
    outer loop
      vertex 9.31958 -1.22695 0
      vertex 9.0797 -2.4329 5
      vertex 9.0797 -2.4329 0
    endloop
  endfacet
  facet normal -0.555571 -0.831469 0
    outer loop
      vertex -5.72236 -7.45752 0
      vertex -4.7 -8.14064 5
      vertex -5.72236 -7.45752 5
    endloop
  endfacet
  facet normal -0.555571 -0.831469 -0
    outer loop
      vertex -4.7 -8.14064 5
      vertex -5.72236 -7.45752 0
      vertex -4.7 -8.14064 0
    endloop
  endfacet
  facet normal 0.555571 -0.831469 0
    outer loop
      vertex 4.7 -8.14064 0
      vertex 5.72236 -7.45752 5
      vertex 4.7 -8.14064 5
    endloop
  endfacet
  facet normal 0.555571 -0.831469 0
    outer loop
      vertex 5.72236 -7.45752 5
      vertex 4.7 -8.14064 0
      vertex 5.72236 -7.45752 0
    endloop
  endfacet
  facet normal 0 0 -1
    outer loop
      vertex 9.31958 -1.22695 0
      vertex 9.31958 1.22695 0
      vertex 9.4 0 0
    endloop
  endfacet
  facet normal 0 0 -1
    outer loop
      vertex 9.0797 -2.4329 0
      vertex 9.31958 1.22695 0
      vertex 9.31958 -1.22695 0
    endloop
  endfacet
  facet normal 0 0 -1
    outer loop
      vertex 9.0797 -2.4329 0
      vertex 9.0797 2.4329 0
      vertex 9.31958 1.22695 0
    endloop
  endfacet
  facet normal 0 0 -1
    outer loop
      vertex 8.68447 -3.59722 0
      vertex 9.0797 2.4329 0
      vertex 9.0797 -2.4329 0
    endloop
  endfacet
  facet normal 0 0 -1
    outer loop
      vertex 8.68447 -3.59722 0
      vertex 8.68447 3.59722 0
      vertex 9.0797 2.4329 0
    endloop
  endfacet
  facet normal 0 0 -1
    outer loop
      vertex 8.14064 -4.7 0
      vertex 8.68447 3.59722 0
      vertex 8.68447 -3.59722 0
    endloop
  endfacet
  facet normal 0 0 -1
    outer loop
      vertex 8.14064 -4.7 0
      vertex 8.14064 4.7 0
      vertex 8.68447 3.59722 0
    endloop
  endfacet
  facet normal 0 0 -1
    outer loop
      vertex 7.45752 -5.72236 0
      vertex 8.14064 4.7 0
      vertex 8.14064 -4.7 0
    endloop
  endfacet
  facet normal 0 0 -1
    outer loop
      vertex 7.45752 -5.72236 0
      vertex 7.45752 5.72236 0
      vertex 8.14064 4.7 0
    endloop
  endfacet
  facet normal 0 0 -1
    outer loop
      vertex 6.6468 -6.6468 0
      vertex 7.45752 5.72236 0
      vertex 7.45752 -5.72236 0
    endloop
  endfacet
  facet normal 0 0 -1
    outer loop
      vertex 6.6468 -6.6468 0
      vertex 6.6468 6.6468 0
      vertex 7.45752 5.72236 0
    endloop
  endfacet
  facet normal 0 0 -1
    outer loop
      vertex 5.72236 -7.45752 0
      vertex 6.6468 6.6468 0
      vertex 6.6468 -6.6468 0
    endloop
  endfacet
  facet normal 0 0 -1
    outer loop
      vertex 5.72236 -7.45752 0
      vertex 5.72236 7.45752 0
      vertex 6.6468 6.6468 0
    endloop
  endfacet
  facet normal 0 0 -1
    outer loop
      vertex 4.7 -8.14064 0
      vertex 5.72236 7.45752 0
      vertex 5.72236 -7.45752 0
    endloop
  endfacet
  facet normal 0 0 -1
    outer loop
      vertex 4.7 -8.14064 0
      vertex 4.7 8.14064 0
      vertex 5.72236 7.45752 0
    endloop
  endfacet
  facet normal 0 0 -1
    outer loop
      vertex 3.59722 -8.68447 0
      vertex 4.7 8.14064 0
      vertex 4.7 -8.14064 0
    endloop
  endfacet
  facet normal 0 0 -1
    outer loop
      vertex 3.59722 -8.68447 0
      vertex 3.59722 8.68447 0
      vertex 4.7 8.14064 0
    endloop
  endfacet
  facet normal 0 0 -1
    outer loop
      vertex 2.4329 -9.0797 0
      vertex 3.59722 8.68447 0
      vertex 3.59722 -8.68447 0
    endloop
  endfacet
  facet normal 0 0 -1
    outer loop
      vertex 2.4329 -9.0797 0
      vertex 2.4329 9.0797 0
      vertex 3.59722 8.68447 0
    endloop
  endfacet
  facet normal 0 0 -1
    outer loop
      vertex 1.22695 -9.31958 0
      vertex 2.4329 9.0797 0
      vertex 2.4329 -9.0797 0
    endloop
  endfacet
  facet normal 0 0 -1
    outer loop
      vertex 1.22695 -9.31958 0
      vertex 1.22695 9.31958 0
      vertex 2.4329 9.0797 0
    endloop
  endfacet
  facet normal 0 0 -1
    outer loop
      vertex 0 -9.4 0
      vertex 1.22695 9.31958 0
      vertex 1.22695 -9.31958 0
    endloop
  endfacet
  facet normal 0 0 -1
    outer loop
      vertex 0 -9.4 0
      vertex 0 9.4 0
      vertex 1.22695 9.31958 0
    endloop
  endfacet
  facet normal 0 0 -1
    outer loop
      vertex -1.22695 -9.31958 0
      vertex 0 9.4 0
      vertex 0 -9.4 0
    endloop
  endfacet
  facet normal 0 0 -1
    outer loop
      vertex -1.22695 -9.31958 0
      vertex -1.22695 9.31958 0
      vertex 0 9.4 0
    endloop
  endfacet
  facet normal 0 0 -1
    outer loop
      vertex -2.4329 -9.0797 0
      vertex -1.22695 9.31958 0
      vertex -1.22695 -9.31958 0
    endloop
  endfacet
  facet normal 0 0 -1
    outer loop
      vertex -2.4329 -9.0797 0
      vertex -2.4329 9.0797 0
      vertex -1.22695 9.31958 0
    endloop
  endfacet
  facet normal 0 0 -1
    outer loop
      vertex -3.59722 -8.68447 0
      vertex -2.4329 9.0797 0
      vertex -2.4329 -9.0797 0
    endloop
  endfacet
  facet normal 0 0 -1
    outer loop
      vertex -3.59722 -8.68447 0
      vertex -3.59722 8.68447 0
      vertex -2.4329 9.0797 0
    endloop
  endfacet
  facet normal 0 0 -1
    outer loop
      vertex -4.7 -8.14064 0
      vertex -3.59722 8.68447 0
      vertex -3.59722 -8.68447 0
    endloop
  endfacet
  facet normal 0 0 -1
    outer loop
      vertex -4.7 -8.14064 0
      vertex -4.7 8.14064 0
      vertex -3.59722 8.68447 0
    endloop
  endfacet
  facet normal 0 0 -1
    outer loop
      vertex -5.72236 -7.45752 0
      vertex -4.7 8.14064 0
      vertex -4.7 -8.14064 0
    endloop
  endfacet
  facet normal 0 0 -1
    outer loop
      vertex -5.72236 -7.45752 0
      vertex -5.72236 7.45752 0
      vertex -4.7 8.14064 0
    endloop
  endfacet
  facet normal 0 0 -1
    outer loop
      vertex -6.6468 -6.6468 0
      vertex -5.72236 7.45752 0
      vertex -5.72236 -7.45752 0
    endloop
  endfacet
  facet normal 0 0 -1
    outer loop
      vertex -6.6468 -6.6468 0
      vertex -6.6468 6.6468 0
      vertex -5.72236 7.45752 0
    endloop
  endfacet
  facet normal 0 0 -1
    outer loop
      vertex -7.45752 -5.72236 0
      vertex -6.6468 6.6468 0
      vertex -6.6468 -6.6468 0
    endloop
  endfacet
  facet normal 0 0 -1
    outer loop
      vertex -7.45752 -5.72236 0
      vertex -7.45752 5.72236 0
      vertex -6.6468 6.6468 0
    endloop
  endfacet
  facet normal 0 0 -1
    outer loop
      vertex -8.14064 -4.7 0
      vertex -7.45752 5.72236 0
      vertex -7.45752 -5.72236 0
    endloop
  endfacet
  facet normal 0 0 -1
    outer loop
      vertex -8.14064 -4.7 0
      vertex -8.14064 4.7 0
      vertex -7.45752 5.72236 0
    endloop
  endfacet
  facet normal 0 0 -1
    outer loop
      vertex -8.68447 -3.59722 0
      vertex -8.14064 4.7 0
      vertex -8.14064 -4.7 0
    endloop
  endfacet
  facet normal 0 0 -1
    outer loop
      vertex -8.68447 -3.59722 0
      vertex -8.68447 3.59722 0
      vertex -8.14064 4.7 0
    endloop
  endfacet
  facet normal 0 0 -1
    outer loop
      vertex -9.0797 -2.4329 0
      vertex -8.68447 3.59722 0
      vertex -8.68447 -3.59722 0
    endloop
  endfacet
  facet normal 0 0 -1
    outer loop
      vertex -9.0797 -2.4329 0
      vertex -9.0797 2.4329 0
      vertex -8.68447 3.59722 0
    endloop
  endfacet
  facet normal 0 0 -1
    outer loop
      vertex -9.31958 -1.22695 0
      vertex -9.0797 2.4329 0
      vertex -9.0797 -2.4329 0
    endloop
  endfacet
  facet normal 0 0 -1
    outer loop
      vertex -9.31958 -1.22695 0
      vertex -9.31958 1.22695 0
      vertex -9.0797 2.4329 0
    endloop
  endfacet
  facet normal 0 -0 -1
    outer loop
      vertex -9.31958 1.22695 0
      vertex -9.31958 -1.22695 0
      vertex -9.4 0 0
    endloop
  endfacet
  facet normal -0.980785 -0.195089 0
    outer loop
      vertex 5.25466 0.691789 3.5
      vertex 5.11941 1.37174 5
      vertex 5.11941 1.37174 3.5
    endloop
  endfacet
  facet normal -0.980785 -0.195089 0
    outer loop
      vertex 5.11941 1.37174 5
      vertex 5.25466 0.691789 3.5
      vertex 5.25466 0.691789 5
    endloop
  endfacet
  facet normal -0.997859 -0.0653999 0
    outer loop
      vertex 5.3 0 3.5
      vertex 5.25466 0.691789 5
      vertex 5.25466 0.691789 3.5
    endloop
  endfacet
  facet normal -0.997859 -0.0653999 0
    outer loop
      vertex 5.25466 0.691789 5
      vertex 5.3 0 3.5
      vertex 5.3 0 5
    endloop
  endfacet
  facet normal 0.442291 -0.896872 0
    outer loop
      vertex -2.65 4.58993 3.5
      vertex -2.02822 4.89656 5
      vertex -2.65 4.58993 5
    endloop
  endfacet
  facet normal 0.442291 -0.896872 0
    outer loop
      vertex -2.02822 4.89656 5
      vertex -2.65 4.58993 3.5
      vertex -2.02822 4.89656 3.5
    endloop
  endfacet
  facet normal -0.0653999 -0.997859 0
    outer loop
      vertex 0 5.3 3.5
      vertex 0.691789 5.25466 5
      vertex 0 5.3 5
    endloop
  endfacet
  facet normal -0.0653999 -0.997859 -0
    outer loop
      vertex 0.691789 5.25466 5
      vertex 0 5.3 3.5
      vertex 0.691789 5.25466 3.5
    endloop
  endfacet
  facet normal -0.659333 -0.751851 0
    outer loop
      vertex 3.22643 4.20477 3.5
      vertex 3.74767 3.74767 5
      vertex 3.22643 4.20477 5
    endloop
  endfacet
  facet normal -0.659333 -0.751851 -0
    outer loop
      vertex 3.74767 3.74767 5
      vertex 3.22643 4.20477 3.5
      vertex 3.74767 3.74767 3.5
    endloop
  endfacet
  facet normal -0.946928 0.321446 0
    outer loop
      vertex 4.89656 -2.02822 3.5
      vertex 5.11941 -1.37174 5
      vertex 5.11941 -1.37174 3.5
    endloop
  endfacet
  facet normal -0.946928 0.321446 0
    outer loop
      vertex 5.11941 -1.37174 5
      vertex 4.89656 -2.02822 3.5
      vertex 4.89656 -2.02822 5
    endloop
  endfacet
  facet normal 0.0653999 0.997859 -0
    outer loop
      vertex 0 -5.3 3.5
      vertex -0.691789 -5.25466 5
      vertex 0 -5.3 5
    endloop
  endfacet
  facet normal 0.0653999 0.997859 0
    outer loop
      vertex -0.691789 -5.25466 5
      vertex 0 -5.3 3.5
      vertex -0.691789 -5.25466 3.5
    endloop
  endfacet
  facet normal 0.555572 0.831468 -0
    outer loop
      vertex -2.65 -4.58993 3.5
      vertex -3.22643 -4.20477 5
      vertex -2.65 -4.58993 5
    endloop
  endfacet
  facet normal 0.555572 0.831468 0
    outer loop
      vertex -3.22643 -4.20477 5
      vertex -2.65 -4.58993 3.5
      vertex -3.22643 -4.20477 3.5
    endloop
  endfacet
  facet normal -0.831468 0.555572 0
    outer loop
      vertex 4.20477 -3.22643 3.5
      vertex 4.58993 -2.65 5
      vertex 4.58993 -2.65 3.5
    endloop
  endfacet
  facet normal -0.831468 0.555572 0
    outer loop
      vertex 4.58993 -2.65 5
      vertex 4.20477 -3.22643 3.5
      vertex 4.20477 -3.22643 5
    endloop
  endfacet
  facet normal -0.997859 0.0653999 0
    outer loop
      vertex 5.25466 -0.691789 3.5
      vertex 5.3 0 5
      vertex 5.3 0 3.5
    endloop
  endfacet
  facet normal -0.997859 0.0653999 0
    outer loop
      vertex 5.3 0 5
      vertex 5.25466 -0.691789 3.5
      vertex 5.25466 -0.691789 5
    endloop
  endfacet
  facet normal 0.997859 -0.0653999 0
    outer loop
      vertex -5.3 0 5
      vertex -5.25466 0.691789 3.5
      vertex -5.25466 0.691789 5
    endloop
  endfacet
  facet normal 0.997859 -0.0653999 0
    outer loop
      vertex -5.25466 0.691789 3.5
      vertex -5.3 0 5
      vertex -5.3 0 3.5
    endloop
  endfacet
  facet normal 0.555572 -0.831468 0
    outer loop
      vertex -3.22643 4.20477 3.5
      vertex -2.65 4.58993 5
      vertex -3.22643 4.20477 5
    endloop
  endfacet
  facet normal 0.555572 -0.831468 0
    outer loop
      vertex -2.65 4.58993 5
      vertex -3.22643 4.20477 3.5
      vertex -2.65 4.58993 3.5
    endloop
  endfacet
  facet normal -0.751851 -0.659333 0
    outer loop
      vertex 4.20477 3.22643 3.5
      vertex 3.74767 3.74767 5
      vertex 3.74767 3.74767 3.5
    endloop
  endfacet
  facet normal -0.751851 -0.659333 0
    outer loop
      vertex 3.74767 3.74767 5
      vertex 4.20477 3.22643 3.5
      vertex 4.20477 3.22643 5
    endloop
  endfacet
  facet normal -0.980785 0.195089 0
    outer loop
      vertex 5.11941 -1.37174 3.5
      vertex 5.25466 -0.691789 5
      vertex 5.25466 -0.691789 3.5
    endloop
  endfacet
  facet normal -0.980785 0.195089 0
    outer loop
      vertex 5.25466 -0.691789 5
      vertex 5.11941 -1.37174 3.5
      vertex 5.11941 -1.37174 5
    endloop
  endfacet
  facet normal -0.0653999 0.997859 0
    outer loop
      vertex 0.691789 -5.25466 3.5
      vertex 0 -5.3 5
      vertex 0.691789 -5.25466 5
    endloop
  endfacet
  facet normal -0.0653999 0.997859 0
    outer loop
      vertex 0 -5.3 5
      vertex 0.691789 -5.25466 3.5
      vertex 0 -5.3 3.5
    endloop
  endfacet
  facet normal 0.896872 0.442291 0
    outer loop
      vertex -4.58993 -2.65 5
      vertex -4.89656 -2.02822 3.5
      vertex -4.89656 -2.02822 5
    endloop
  endfacet
  facet normal 0.896872 0.442291 0
    outer loop
      vertex -4.89656 -2.02822 3.5
      vertex -4.58993 -2.65 5
      vertex -4.58993 -2.65 3.5
    endloop
  endfacet
  facet normal -0.195089 0.980785 0
    outer loop
      vertex 1.37174 -5.11941 3.5
      vertex 0.691789 -5.25466 5
      vertex 1.37174 -5.11941 5
    endloop
  endfacet
  facet normal -0.195089 0.980785 0
    outer loop
      vertex 0.691789 -5.25466 5
      vertex 1.37174 -5.11941 3.5
      vertex 0.691789 -5.25466 3.5
    endloop
  endfacet
  facet normal -0.831468 -0.555572 0
    outer loop
      vertex 4.58993 2.65 3.5
      vertex 4.20477 3.22643 5
      vertex 4.20477 3.22643 3.5
    endloop
  endfacet
  facet normal -0.831468 -0.555572 0
    outer loop
      vertex 4.20477 3.22643 5
      vertex 4.58993 2.65 3.5
      vertex 4.58993 2.65 5
    endloop
  endfacet
  facet normal -0.946928 -0.321446 0
    outer loop
      vertex 5.11941 1.37174 3.5
      vertex 4.89656 2.02822 5
      vertex 4.89656 2.02822 3.5
    endloop
  endfacet
  facet normal -0.946928 -0.321446 0
    outer loop
      vertex 4.89656 2.02822 5
      vertex 5.11941 1.37174 3.5
      vertex 5.11941 1.37174 5
    endloop
  endfacet
  facet normal 0.997859 0.0653999 0
    outer loop
      vertex -5.25466 -0.691789 5
      vertex -5.3 0 3.5
      vertex -5.3 0 5
    endloop
  endfacet
  facet normal 0.997859 0.0653999 0
    outer loop
      vertex -5.3 0 3.5
      vertex -5.25466 -0.691789 5
      vertex -5.25466 -0.691789 3.5
    endloop
  endfacet
  facet normal -0.896872 0.442291 0
    outer loop
      vertex 4.58993 -2.65 3.5
      vertex 4.89656 -2.02822 5
      vertex 4.89656 -2.02822 3.5
    endloop
  endfacet
  facet normal -0.896872 0.442291 0
    outer loop
      vertex 4.89656 -2.02822 5
      vertex 4.58993 -2.65 3.5
      vertex 4.58993 -2.65 5
    endloop
  endfacet
  facet normal 0.751851 0.659333 0
    outer loop
      vertex -3.74767 -3.74767 5
      vertex -4.20477 -3.22643 3.5
      vertex -4.20477 -3.22643 5
    endloop
  endfacet
  facet normal 0.751851 0.659333 0
    outer loop
      vertex -4.20477 -3.22643 3.5
      vertex -3.74767 -3.74767 5
      vertex -3.74767 -3.74767 3.5
    endloop
  endfacet
  facet normal 0.195089 0.980785 -0
    outer loop
      vertex -0.691789 -5.25466 3.5
      vertex -1.37174 -5.11941 5
      vertex -0.691789 -5.25466 5
    endloop
  endfacet
  facet normal 0.195089 0.980785 0
    outer loop
      vertex -1.37174 -5.11941 5
      vertex -0.691789 -5.25466 3.5
      vertex -1.37174 -5.11941 3.5
    endloop
  endfacet
  facet normal 0.0653999 -0.997859 0
    outer loop
      vertex -0.691789 5.25466 3.5
      vertex 0 5.3 5
      vertex -0.691789 5.25466 5
    endloop
  endfacet
  facet normal 0.0653999 -0.997859 0
    outer loop
      vertex 0 5.3 5
      vertex -0.691789 5.25466 3.5
      vertex 0 5.3 3.5
    endloop
  endfacet
  facet normal 0.980785 0.195089 0
    outer loop
      vertex -5.11941 -1.37174 5
      vertex -5.25466 -0.691789 3.5
      vertex -5.25466 -0.691789 5
    endloop
  endfacet
  facet normal 0.980785 0.195089 0
    outer loop
      vertex -5.25466 -0.691789 3.5
      vertex -5.11941 -1.37174 5
      vertex -5.11941 -1.37174 3.5
    endloop
  endfacet
  facet normal 0.751851 -0.659333 0
    outer loop
      vertex -4.20477 3.22643 5
      vertex -3.74767 3.74767 3.5
      vertex -3.74767 3.74767 5
    endloop
  endfacet
  facet normal 0.751851 -0.659333 0
    outer loop
      vertex -3.74767 3.74767 3.5
      vertex -4.20477 3.22643 5
      vertex -4.20477 3.22643 3.5
    endloop
  endfacet
  facet normal 0.195089 -0.980785 0
    outer loop
      vertex -1.37174 5.11941 3.5
      vertex -0.691789 5.25466 5
      vertex -1.37174 5.11941 5
    endloop
  endfacet
  facet normal 0.195089 -0.980785 0
    outer loop
      vertex -0.691789 5.25466 5
      vertex -1.37174 5.11941 3.5
      vertex -0.691789 5.25466 3.5
    endloop
  endfacet
  facet normal 0.659333 0.751851 -0
    outer loop
      vertex -3.22643 -4.20477 3.5
      vertex -3.74767 -3.74767 5
      vertex -3.22643 -4.20477 5
    endloop
  endfacet
  facet normal 0.659333 0.751851 0
    outer loop
      vertex -3.74767 -3.74767 5
      vertex -3.22643 -4.20477 3.5
      vertex -3.74767 -3.74767 3.5
    endloop
  endfacet
  facet normal -0.555572 -0.831468 0
    outer loop
      vertex 2.65 4.58993 3.5
      vertex 3.22643 4.20477 5
      vertex 2.65 4.58993 5
    endloop
  endfacet
  facet normal -0.555572 -0.831468 -0
    outer loop
      vertex 3.22643 4.20477 5
      vertex 2.65 4.58993 3.5
      vertex 3.22643 4.20477 3.5
    endloop
  endfacet
  facet normal 0.659333 -0.751851 0
    outer loop
      vertex -3.74767 3.74767 3.5
      vertex -3.22643 4.20477 5
      vertex -3.74767 3.74767 5
    endloop
  endfacet
  facet normal 0.659333 -0.751851 0
    outer loop
      vertex -3.22643 4.20477 5
      vertex -3.74767 3.74767 3.5
      vertex -3.22643 4.20477 3.5
    endloop
  endfacet
  facet normal 0 0 1
    outer loop
      vertex 5.25466 0.691789 3.5
      vertex 5.25466 -0.691789 3.5
      vertex 5.3 0 3.5
    endloop
  endfacet
  facet normal 0 0 1
    outer loop
      vertex 5.11941 1.37174 3.5
      vertex 5.25466 -0.691789 3.5
      vertex 5.25466 0.691789 3.5
    endloop
  endfacet
  facet normal 0 0 1
    outer loop
      vertex 5.11941 1.37174 3.5
      vertex 5.11941 -1.37174 3.5
      vertex 5.25466 -0.691789 3.5
    endloop
  endfacet
  facet normal 0 0 1
    outer loop
      vertex 4.89656 2.02822 3.5
      vertex 5.11941 -1.37174 3.5
      vertex 5.11941 1.37174 3.5
    endloop
  endfacet
  facet normal 0 0 1
    outer loop
      vertex 4.89656 2.02822 3.5
      vertex 4.89656 -2.02822 3.5
      vertex 5.11941 -1.37174 3.5
    endloop
  endfacet
  facet normal 0 0 1
    outer loop
      vertex 4.58993 2.65 3.5
      vertex 4.89656 -2.02822 3.5
      vertex 4.89656 2.02822 3.5
    endloop
  endfacet
  facet normal 0 0 1
    outer loop
      vertex 4.58993 2.65 3.5
      vertex 4.58993 -2.65 3.5
      vertex 4.89656 -2.02822 3.5
    endloop
  endfacet
  facet normal 0 0 1
    outer loop
      vertex 4.20477 3.22643 3.5
      vertex 4.58993 -2.65 3.5
      vertex 4.58993 2.65 3.5
    endloop
  endfacet
  facet normal 0 0 1
    outer loop
      vertex 4.20477 3.22643 3.5
      vertex 4.20477 -3.22643 3.5
      vertex 4.58993 -2.65 3.5
    endloop
  endfacet
  facet normal 0 0 1
    outer loop
      vertex 3.74767 3.74767 3.5
      vertex 4.20477 -3.22643 3.5
      vertex 4.20477 3.22643 3.5
    endloop
  endfacet
  facet normal 0 0 1
    outer loop
      vertex 3.74767 3.74767 3.5
      vertex 3.74767 -3.74767 3.5
      vertex 4.20477 -3.22643 3.5
    endloop
  endfacet
  facet normal 0 0 1
    outer loop
      vertex 3.22643 4.20477 3.5
      vertex 3.74767 -3.74767 3.5
      vertex 3.74767 3.74767 3.5
    endloop
  endfacet
  facet normal 0 0 1
    outer loop
      vertex 3.22643 4.20477 3.5
      vertex 3.22643 -4.20477 3.5
      vertex 3.74767 -3.74767 3.5
    endloop
  endfacet
  facet normal 0 0 1
    outer loop
      vertex 2.65 4.58993 3.5
      vertex 3.22643 -4.20477 3.5
      vertex 3.22643 4.20477 3.5
    endloop
  endfacet
  facet normal 0 0 1
    outer loop
      vertex 2.65 4.58993 3.5
      vertex 2.65 -4.58993 3.5
      vertex 3.22643 -4.20477 3.5
    endloop
  endfacet
  facet normal 0 0 1
    outer loop
      vertex 2.02822 4.89656 3.5
      vertex 2.65 -4.58993 3.5
      vertex 2.65 4.58993 3.5
    endloop
  endfacet
  facet normal 0 0 1
    outer loop
      vertex 2.02822 4.89656 3.5
      vertex 2.02822 -4.89656 3.5
      vertex 2.65 -4.58993 3.5
    endloop
  endfacet
  facet normal 0 0 1
    outer loop
      vertex 1.37174 5.11941 3.5
      vertex 2.02822 -4.89656 3.5
      vertex 2.02822 4.89656 3.5
    endloop
  endfacet
  facet normal 0 0 1
    outer loop
      vertex 1.37174 5.11941 3.5
      vertex 1.37174 -5.11941 3.5
      vertex 2.02822 -4.89656 3.5
    endloop
  endfacet
  facet normal 0 0 1
    outer loop
      vertex 0.691789 5.25466 3.5
      vertex 1.37174 -5.11941 3.5
      vertex 1.37174 5.11941 3.5
    endloop
  endfacet
  facet normal 0 0 1
    outer loop
      vertex 0.691789 5.25466 3.5
      vertex 0.691789 -5.25466 3.5
      vertex 1.37174 -5.11941 3.5
    endloop
  endfacet
  facet normal 0 0 1
    outer loop
      vertex 0 5.3 3.5
      vertex 0.691789 -5.25466 3.5
      vertex 0.691789 5.25466 3.5
    endloop
  endfacet
  facet normal 0 0 1
    outer loop
      vertex 0 5.3 3.5
      vertex 0 -5.3 3.5
      vertex 0.691789 -5.25466 3.5
    endloop
  endfacet
  facet normal -0 0 1
    outer loop
      vertex -0.691789 5.25466 3.5
      vertex 0 -5.3 3.5
      vertex 0 5.3 3.5
    endloop
  endfacet
  facet normal 0 0 1
    outer loop
      vertex -0.691789 5.25466 3.5
      vertex -0.691789 -5.25466 3.5
      vertex 0 -5.3 3.5
    endloop
  endfacet
  facet normal -0 0 1
    outer loop
      vertex -1.37174 5.11941 3.5
      vertex -0.691789 -5.25466 3.5
      vertex -0.691789 5.25466 3.5
    endloop
  endfacet
  facet normal 0 0 1
    outer loop
      vertex -1.37174 5.11941 3.5
      vertex -1.37174 -5.11941 3.5
      vertex -0.691789 -5.25466 3.5
    endloop
  endfacet
  facet normal -0 0 1
    outer loop
      vertex -2.02822 4.89656 3.5
      vertex -1.37174 -5.11941 3.5
      vertex -1.37174 5.11941 3.5
    endloop
  endfacet
  facet normal 0 0 1
    outer loop
      vertex -2.02822 4.89656 3.5
      vertex -2.02822 -4.89656 3.5
      vertex -1.37174 -5.11941 3.5
    endloop
  endfacet
  facet normal -0 0 1
    outer loop
      vertex -2.65 4.58993 3.5
      vertex -2.02822 -4.89656 3.5
      vertex -2.02822 4.89656 3.5
    endloop
  endfacet
  facet normal 0 0 1
    outer loop
      vertex -2.65 4.58993 3.5
      vertex -2.65 -4.58993 3.5
      vertex -2.02822 -4.89656 3.5
    endloop
  endfacet
  facet normal -0 0 1
    outer loop
      vertex -3.22643 4.20477 3.5
      vertex -2.65 -4.58993 3.5
      vertex -2.65 4.58993 3.5
    endloop
  endfacet
  facet normal 0 0 1
    outer loop
      vertex -3.22643 4.20477 3.5
      vertex -3.22643 -4.20477 3.5
      vertex -2.65 -4.58993 3.5
    endloop
  endfacet
  facet normal -0 0 1
    outer loop
      vertex -3.74767 3.74767 3.5
      vertex -3.22643 -4.20477 3.5
      vertex -3.22643 4.20477 3.5
    endloop
  endfacet
  facet normal 0 0 1
    outer loop
      vertex -3.74767 3.74767 3.5
      vertex -3.74767 -3.74767 3.5
      vertex -3.22643 -4.20477 3.5
    endloop
  endfacet
  facet normal -0 0 1
    outer loop
      vertex -4.20477 3.22643 3.5
      vertex -3.74767 -3.74767 3.5
      vertex -3.74767 3.74767 3.5
    endloop
  endfacet
  facet normal 0 0 1
    outer loop
      vertex -4.20477 3.22643 3.5
      vertex -4.20477 -3.22643 3.5
      vertex -3.74767 -3.74767 3.5
    endloop
  endfacet
  facet normal -0 0 1
    outer loop
      vertex -4.58993 2.65 3.5
      vertex -4.20477 -3.22643 3.5
      vertex -4.20477 3.22643 3.5
    endloop
  endfacet
  facet normal 0 0 1
    outer loop
      vertex -4.58993 2.65 3.5
      vertex -4.58993 -2.65 3.5
      vertex -4.20477 -3.22643 3.5
    endloop
  endfacet
  facet normal -0 0 1
    outer loop
      vertex -4.89656 2.02822 3.5
      vertex -4.58993 -2.65 3.5
      vertex -4.58993 2.65 3.5
    endloop
  endfacet
  facet normal 0 0 1
    outer loop
      vertex -4.89656 2.02822 3.5
      vertex -4.89656 -2.02822 3.5
      vertex -4.58993 -2.65 3.5
    endloop
  endfacet
  facet normal -0 0 1
    outer loop
      vertex -5.11941 1.37174 3.5
      vertex -4.89656 -2.02822 3.5
      vertex -4.89656 2.02822 3.5
    endloop
  endfacet
  facet normal 0 0 1
    outer loop
      vertex -5.11941 1.37174 3.5
      vertex -5.11941 -1.37174 3.5
      vertex -4.89656 -2.02822 3.5
    endloop
  endfacet
  facet normal -0 0 1
    outer loop
      vertex -5.25466 0.691789 3.5
      vertex -5.11941 -1.37174 3.5
      vertex -5.11941 1.37174 3.5
    endloop
  endfacet
  facet normal 0 0 1
    outer loop
      vertex -5.25466 0.691789 3.5
      vertex -5.25466 -0.691789 3.5
      vertex -5.11941 -1.37174 3.5
    endloop
  endfacet
  facet normal 0 -0 1
    outer loop
      vertex -5.25466 -0.691789 3.5
      vertex -5.25466 0.691789 3.5
      vertex -5.3 0 3.5
    endloop
  endfacet
  facet normal -0.659333 0.751851 0
    outer loop
      vertex 3.74767 -3.74767 3.5
      vertex 3.22643 -4.20477 5
      vertex 3.74767 -3.74767 5
    endloop
  endfacet
  facet normal -0.659333 0.751851 0
    outer loop
      vertex 3.22643 -4.20477 5
      vertex 3.74767 -3.74767 3.5
      vertex 3.22643 -4.20477 3.5
    endloop
  endfacet
  facet normal -0.896872 -0.442291 0
    outer loop
      vertex 4.89656 2.02822 3.5
      vertex 4.58993 2.65 5
      vertex 4.58993 2.65 3.5
    endloop
  endfacet
  facet normal -0.896872 -0.442291 0
    outer loop
      vertex 4.58993 2.65 5
      vertex 4.89656 2.02822 3.5
      vertex 4.89656 2.02822 5
    endloop
  endfacet
  facet normal -0.751851 0.659333 0
    outer loop
      vertex 3.74767 -3.74767 3.5
      vertex 4.20477 -3.22643 5
      vertex 4.20477 -3.22643 3.5
    endloop
  endfacet
  facet normal -0.751851 0.659333 0
    outer loop
      vertex 4.20477 -3.22643 5
      vertex 3.74767 -3.74767 3.5
      vertex 3.74767 -3.74767 5
    endloop
  endfacet
  facet normal -0.442291 0.896872 0
    outer loop
      vertex 2.65 -4.58993 3.5
      vertex 2.02822 -4.89656 5
      vertex 2.65 -4.58993 5
    endloop
  endfacet
  facet normal -0.442291 0.896872 0
    outer loop
      vertex 2.02822 -4.89656 5
      vertex 2.65 -4.58993 3.5
      vertex 2.02822 -4.89656 3.5
    endloop
  endfacet
  facet normal -0.442291 -0.896872 0
    outer loop
      vertex 2.02822 4.89656 3.5
      vertex 2.65 4.58993 5
      vertex 2.02822 4.89656 5
    endloop
  endfacet
  facet normal -0.442291 -0.896872 -0
    outer loop
      vertex 2.65 4.58993 5
      vertex 2.02822 4.89656 3.5
      vertex 2.65 4.58993 3.5
    endloop
  endfacet
  facet normal 0.946928 -0.321446 0
    outer loop
      vertex -5.11941 1.37174 5
      vertex -4.89656 2.02822 3.5
      vertex -4.89656 2.02822 5
    endloop
  endfacet
  facet normal 0.946928 -0.321446 0
    outer loop
      vertex -4.89656 2.02822 3.5
      vertex -5.11941 1.37174 5
      vertex -5.11941 1.37174 3.5
    endloop
  endfacet
  facet normal -0.195089 -0.980785 0
    outer loop
      vertex 0.691789 5.25466 3.5
      vertex 1.37174 5.11941 5
      vertex 0.691789 5.25466 5
    endloop
  endfacet
  facet normal -0.195089 -0.980785 -0
    outer loop
      vertex 1.37174 5.11941 5
      vertex 0.691789 5.25466 3.5
      vertex 1.37174 5.11941 3.5
    endloop
  endfacet
  facet normal 0.321446 -0.946928 0
    outer loop
      vertex -2.02822 4.89656 3.5
      vertex -1.37174 5.11941 5
      vertex -2.02822 4.89656 5
    endloop
  endfacet
  facet normal 0.321446 -0.946928 0
    outer loop
      vertex -1.37174 5.11941 5
      vertex -2.02822 4.89656 3.5
      vertex -1.37174 5.11941 3.5
    endloop
  endfacet
  facet normal -0.321446 0.946928 0
    outer loop
      vertex 2.02822 -4.89656 3.5
      vertex 1.37174 -5.11941 5
      vertex 2.02822 -4.89656 5
    endloop
  endfacet
  facet normal -0.321446 0.946928 0
    outer loop
      vertex 1.37174 -5.11941 5
      vertex 2.02822 -4.89656 3.5
      vertex 1.37174 -5.11941 3.5
    endloop
  endfacet
  facet normal 0.946928 0.321446 0
    outer loop
      vertex -4.89656 -2.02822 5
      vertex -5.11941 -1.37174 3.5
      vertex -5.11941 -1.37174 5
    endloop
  endfacet
  facet normal 0.946928 0.321446 0
    outer loop
      vertex -5.11941 -1.37174 3.5
      vertex -4.89656 -2.02822 5
      vertex -4.89656 -2.02822 3.5
    endloop
  endfacet
  facet normal -0.321446 -0.946928 0
    outer loop
      vertex 1.37174 5.11941 3.5
      vertex 2.02822 4.89656 5
      vertex 1.37174 5.11941 5
    endloop
  endfacet
  facet normal -0.321446 -0.946928 -0
    outer loop
      vertex 2.02822 4.89656 5
      vertex 1.37174 5.11941 3.5
      vertex 2.02822 4.89656 3.5
    endloop
  endfacet
  facet normal 0.896872 -0.442291 0
    outer loop
      vertex -4.89656 2.02822 5
      vertex -4.58993 2.65 3.5
      vertex -4.58993 2.65 5
    endloop
  endfacet
  facet normal 0.896872 -0.442291 0
    outer loop
      vertex -4.58993 2.65 3.5
      vertex -4.89656 2.02822 5
      vertex -4.89656 2.02822 3.5
    endloop
  endfacet
  facet normal -0.555572 0.831468 0
    outer loop
      vertex 3.22643 -4.20477 3.5
      vertex 2.65 -4.58993 5
      vertex 3.22643 -4.20477 5
    endloop
  endfacet
  facet normal -0.555572 0.831468 0
    outer loop
      vertex 2.65 -4.58993 5
      vertex 3.22643 -4.20477 3.5
      vertex 2.65 -4.58993 3.5
    endloop
  endfacet
  facet normal 0.831468 0.555572 0
    outer loop
      vertex -4.20477 -3.22643 5
      vertex -4.58993 -2.65 3.5
      vertex -4.58993 -2.65 5
    endloop
  endfacet
  facet normal 0.831468 0.555572 0
    outer loop
      vertex -4.58993 -2.65 3.5
      vertex -4.20477 -3.22643 5
      vertex -4.20477 -3.22643 3.5
    endloop
  endfacet
  facet normal 0.980785 -0.195089 0
    outer loop
      vertex -5.25466 0.691789 5
      vertex -5.11941 1.37174 3.5
      vertex -5.11941 1.37174 5
    endloop
  endfacet
  facet normal 0.980785 -0.195089 0
    outer loop
      vertex -5.11941 1.37174 3.5
      vertex -5.25466 0.691789 5
      vertex -5.25466 0.691789 3.5
    endloop
  endfacet
  facet normal 0.442291 0.896872 -0
    outer loop
      vertex -2.02822 -4.89656 3.5
      vertex -2.65 -4.58993 5
      vertex -2.02822 -4.89656 5
    endloop
  endfacet
  facet normal 0.442291 0.896872 0
    outer loop
      vertex -2.65 -4.58993 5
      vertex -2.02822 -4.89656 3.5
      vertex -2.65 -4.58993 3.5
    endloop
  endfacet
  facet normal 0.831468 -0.555572 0
    outer loop
      vertex -4.58993 2.65 5
      vertex -4.20477 3.22643 3.5
      vertex -4.20477 3.22643 5
    endloop
  endfacet
  facet normal 0.831468 -0.555572 0
    outer loop
      vertex -4.20477 3.22643 3.5
      vertex -4.58993 2.65 5
      vertex -4.58993 2.65 3.5
    endloop
  endfacet
  facet normal 0.321446 0.946928 -0
    outer loop
      vertex -1.37174 -5.11941 3.5
      vertex -2.02822 -4.89656 5
      vertex -1.37174 -5.11941 5
    endloop
  endfacet
  facet normal 0.321446 0.946928 0
    outer loop
      vertex -2.02822 -4.89656 5
      vertex -1.37174 -5.11941 3.5
      vertex -2.02822 -4.89656 3.5
    endloop
  endfacet
endsolid OpenSCAD_Model
